<?xml version="1.0" encoding="utf-8"?>
<!-- Generator: Adobe Illustrator 16.0.3, SVG Export Plug-In . SVG Version: 6.00 Build 0)  -->
<!DOCTYPE svg PUBLIC "-//W3C//DTD SVG 1.0//EN" "http://www.w3.org/TR/2001/REC-SVG-20010904/DTD/svg10.dtd">
<svg version="1.0" id="Capa_1" xmlns="http://www.w3.org/2000/svg" xmlns:xlink="http://www.w3.org/1999/xlink" x="0px" y="0px"
	 width="92.996px" height="115.495px" viewBox="0 0 92.996 115.495" enable-background="new 0 0 92.996 115.495"
	 xml:space="preserve">
<path fill="none" d="M32.661-9.427c0-1.239,1.154-2.242,2.58-2.242"/>
<g id="XMLID_58_">
	<g>
		<g id="XMLID_14_">
			<g id="XMLID_15_">
				<path fill="#D08029" d="M24.949,64.492c0,0.006,0.005,0.011,0.011,0.011h0.085c0.006,0,0.007,0.003,0.002,0.007l-0.085,0.07
					c-0.005,0.004-0.005,0.01,0,0.014l18.714,14.699c0.005,0.004,0.009,0.012,0.009,0.019v28.572c0,0.007,0.005,0.012,0.012,0.012
					h5.593c0.007,0,0.012-0.005,0.012-0.012V79.332c0-0.007,0.004-0.015,0.009-0.019l18.723-14.709c0.005-0.003,0.005-0.01,0-0.014
					l-0.09-0.066c-0.005-0.004-0.004-0.007,0.003-0.007h0.084c0.007,0,0.012-0.005,0.012-0.011V54.319
					c0-0.006,0.001-0.012,0.003-0.014c0.001-0.001,0.001-0.004,0-0.007c-0.002-0.003-0.003-0.01-0.003-0.016V44.016
					c0-0.006,0.001-0.012,0.003-0.013c0.001-0.001,0.001-0.003,0-0.005c-0.002-0.001-0.003-0.008-0.003-0.014V29.383
					c0-0.006-0.005-0.011-0.012-0.011h-5.599c-0.007,0-0.012,0.005-0.012,0.011V42.16c0,0.006-0.004,0.015-0.009,0.018l-3.732,2.933
					c-0.005,0.004-0.009,0.002-0.009-0.004V21.353c0-0.006-0.005-0.011-0.012-0.011h-5.594c-0.007,0-0.012,0.005-0.012,0.011v28.168
					c0,0.006-0.004,0.014-0.009,0.018l-3.733,2.929c-0.005,0.004-0.009,0.001-0.009-0.004V10.096c0-0.006-0.005-0.011-0.012-0.011
					h-5.593c-0.007,0-0.012,0.005-0.012,0.011v42.357c0,0.006-0.004,0.008-0.009,0.004l-3.734-2.928
					c-0.005-0.004-0.009-0.012-0.009-0.018V21.353c0-0.006-0.005-0.011-0.012-0.011h-5.598c-0.006,0-0.011,0.005-0.011,0.011v23.74
					c0,0.006-0.004,0.008-0.009,0.004l-3.729-2.929c-0.005-0.004-0.009-0.012-0.009-0.018V29.379c0-0.006-0.005-0.011-0.011-0.011
					H24.96c-0.006,0-0.011,0.005-0.011,0.011V64.492z M43.676,58.697c0.005,0.004,0.009,0.012,0.009,0.018v4.037
					c0,0.006-0.004,0.008-0.009,0.004l-13.102-10.29c-0.005-0.004-0.009-0.012-0.009-0.018v-4.032c0-0.006,0.004-0.008,0.009-0.004
					L43.676,58.697z M62.402,48.417c0.005-0.004,0.009-0.002,0.009,0.004v4.033c0,0.006-0.004,0.015-0.009,0.018l-13.097,10.29
					c-0.005,0.004-0.009,0.002-0.009-0.004v-4.033c0-0.006,0.004-0.015,0.009-0.018L62.402,48.417z M49.305,73.064
					c-0.005,0.003-0.009,0.001-0.009-0.004v-4.037c0-0.006,0.004-0.014,0.009-0.018L62.402,58.72
					c0.005-0.004,0.009-0.001,0.009,0.004v4.033c0,0.006-0.004,0.014-0.009,0.018L49.305,73.064z M43.685,73.045
					c0,0.006-0.004,0.008-0.009,0.004L30.575,62.761c-0.005-0.004-0.009-0.012-0.009-0.018V58.71c0-0.006,0.004-0.008,0.009-0.004
					l13.102,10.29c0.005,0.004,0.009,0.012,0.009,0.018V73.045z"/>
			</g>
		</g>
	</g>
</g>
</svg>
