<?xml version="1.0" encoding="utf-8"?>
<!-- Generator: Adobe Illustrator 23.0.3, SVG Export Plug-In . SVG Version: 6.00 Build 0)  -->
<svg version="1.1" id="Capa_1" xmlns="http://www.w3.org/2000/svg" xmlns:xlink="http://www.w3.org/1999/xlink" x="0px" y="0px"
	 viewBox="0 0 1920 1080" style="enable-background:new 0 0 1920 1080;" xml:space="preserve">
<style type="text/css">
	.st0{clip-path:url(#SVGID_2_);fill:#002A40;}
	.st1{clip-path:url(#SVGID_2_);}
	.st2{fill:#D0802B;}
	.st3{font-family:'MyriadPro-Regular';}
	.st4{font-size:48.5189px;}
	.st5{letter-spacing:19;}
	.st6{fill:#FFFFFF;}
	.st7{font-family:'Antonio-Bold';}
	.st8{font-size:40.4324px;}
	.st9{letter-spacing:16;}
	.st10{font-family:'Coquette';}
	.st11{font-size:97.0378px;}
	.st12{letter-spacing:9;}
</style>
<g>
	<defs>
		<circle id="SVGID_1_" cx="953.39" cy="541.61" r="538.39"/>
	</defs>
	<clipPath id="SVGID_2_">
		<use xlink:href="#SVGID_1_"  style="overflow:visible;"/>
	</clipPath>
	<rect x="217.67" y="-90.36" class="st0" width="1471.45" height="1313.54"/>
	<g id="XMLID_70_" class="st1">
		<text id="XMLID_36_" transform="matrix(1 0 0 1 900.4819 855.7441)" class="st2 st3 st4 st5">XXI</text>
		<g id="XMLID_116_">
			<text transform="matrix(1 0 0 1 764.7114 626.2443)"><tspan x="0" y="0" class="st6 st7 st8 st9">EL BARRIL A</tspan><tspan x="-0.42" y="48.52" class="st6 st7 st8 st9">TU ALCANCE</tspan></text>
		</g>
		<text id="XMLID_115_" transform="matrix(1 0 0 1 556.3442 576.5224)" class="st2 st10 st11 st12">AUTO-CHELA</text>
		<g id="XMLID_58_">
			<path id="XMLID_126_" class="st2" d="M984.78,187.85h-7.98v23.13l-5.32,5.32v-42.95h-7.98v50.93l-5.32,5.32v-76.6h-7.98v76.62
				l-5.32-5.32v-50.95h-7.98v42.97l-5.32-5.32v-23.14h-7.98v26.43l-0.01,0.01l0.01,0.01v18.6l-0.01,0.01l0.01,0.01v18.45h0.15
				l-0.15,0.15l26.6,26.61v51.64h7.98V278.1l26.59-26.59l-0.15-0.15h0.16V187.85z M976.8,222.26v7.33l-18.62,18.62v-7.33
				L976.8,222.26z M950.21,240.89v7.33l-18.62-18.62v-7.33L950.21,240.89z M931.59,248.22v-7.33l18.62,18.62v7.33L931.59,248.22z
				 M958.18,259.49l18.62-18.62v7.33l-18.62,18.62V259.49z"/>
		</g>
		<g id="XMLID_98_">
			<path id="XMLID_142_" class="st6" d="M1125.99,192.54l-30.78,30.78L954.19,82.31L813.05,223.46l-30.91-30.91l-345.1,345.1
				l345.1,345.1l30.91-30.91l141.15,141.15l141.02-141.02l30.78,30.78l345.1-345.1L1125.99,192.54z M954.06,679.28l-15.77,15.77
				L813.05,820.3L530.4,537.65L813.05,255l125.25,125.25l15.77,15.77l15.77-15.77l125.38-125.38l282.79,282.78l-282.78,282.79
				L969.83,695.05L954.06,679.28z M954.19,113.85l125.25,125.25L954.06,364.47L828.82,239.23L954.19,113.85z M782.13,851.22
				L468.57,537.65l313.57-313.56l15.15,15.15L498.86,537.65l298.42,298.42L782.13,851.22z M954.19,961.45L828.81,836.07
				l125.25-125.25l125.38,125.38L954.19,961.45z M1110.98,836.2l298.55-298.55L1110.98,239.1l15.02-15.01l313.57,313.56
				l-313.57,313.57L1110.98,836.2z"/>
		</g>
	</g>
</g>
</svg>
