<?xml version="1.0" encoding="utf-8"?>
<!-- Generator: Adobe Illustrator 16.0.3, SVG Export Plug-In . SVG Version: 6.00 Build 0)  -->
<!DOCTYPE svg PUBLIC "-//W3C//DTD SVG 1.0//EN" "http://www.w3.org/TR/2001/REC-SVG-20010904/DTD/svg10.dtd">
<svg version="1.0" id="Capa_1" xmlns="http://www.w3.org/2000/svg" xmlns:xlink="http://www.w3.org/1999/xlink" x="0px" y="0px"
	 width="512px" height="512px" viewBox="-342.288 681.211 512 512" enable-background="new -342.288 681.211 512 512"
	 xml:space="preserve">
<g>
	<g>
		<g>
			<defs>
				<circle id="SVGID_1_" cx="-86.289" cy="937.211" r="256"/>
			</defs>
			<clipPath id="SVGID_2_">
				<use xlink:href="#SVGID_1_"  overflow="visible"/>
			</clipPath>
			
				<rect x="-436.788" y="637.711" clip-path="url(#SVGID_2_)" fill="#002A40" stroke="#000000" stroke-miterlimit="10" width="700" height="624"/>
			<use xlink:href="#SVGID_1_"  overflow="visible" fill="none" stroke="#000000" stroke-miterlimit="10"/>
		</g>
	</g>
	<g>
		<g>
			<defs>
				<circle id="SVGID_3_" cx="-86.289" cy="937.211" r="256"/>
			</defs>
			<clipPath id="SVGID_4_">
				<use xlink:href="#SVGID_3_"  overflow="visible"/>
			</clipPath>
			<g id="XMLID_70_" clip-path="url(#SVGID_4_)">
				
					<text id="XMLID_36_" transform="matrix(1 0 0 1 -116.0469 1086.5796)" fill="#D0802B" stroke="#000000" stroke-miterlimit="10" font-family="'ArialMT'" font-size="23.0704" letter-spacing="7">XXI</text>
				
					<text id="XMLID_115_" transform="matrix(0.8672 0 0 1 -258.2109 955.5161)" fill="#D0802B" stroke="#000000" stroke-miterlimit="10" font-family="'BaskOldFace'" font-size="53.2067" letter-spacing="3.459">AUTO-CHELA</text>
				<g id="XMLID_58_">
					<path id="XMLID_126_" fill="#D0802B" stroke="#000000" stroke-miterlimit="10" d="M-71.788,769.711h-4V780l-2,2.528v-19.816h-4
						v23.613l-3,2.529v-36.143h-4v36.151l-2-2.529v-23.622h-4v19.828l-2-2.529v-10.299h-4v11.861l-0.005,0.006l0.005,0.006v8.844
						l-0.005,0.004l0.005,0.006v9.273h0.408l-0.564-0.181l12.156,12.403v24.777h4v-24.793l13.031-12.39l0.316,0.183h-0.348V769.711z
						 M-75.788,785.364v3.484l-9,8.853v-3.485L-75.788,785.364z M-88.788,794.221v3.484l-8-8.852v-3.485L-88.788,794.221z
						 M-96.788,797.708v-3.486l8,8.855v3.482L-96.788,797.708z M-84.788,803.065l9-8.852v3.484l-9,8.854V803.065z"/>
				</g>
				<g id="XMLID_98_">
					<path id="XMLID_142_" fill="#FFFFFF" stroke="#000000" stroke-miterlimit="10" d="M-4.216,771.232l-14.636,14.636
						l-67.055-67.049l-67.112,67.115l-14.696-14.697l-164.094,164.092l164.094,164.094l14.696-14.698l67.116,67.114l67.053-67.051
						l14.636,14.635L159.88,935.329L-4.216,771.232z M-85.971,1002.674l-7.498,7.498l-59.551,59.554l-134.397-134.397
						l134.397-134.396l59.556,59.554l7.499,7.499l7.498-7.499l59.617-59.617l134.466,134.46l-134.46,134.467l-59.626-59.623
						L-85.971,1002.674z M-85.908,733.817l59.554,59.555l-59.617,59.612l-59.548-59.552L-85.908,733.817z M-167.72,1084.43
						l-149.096-149.102l149.101-149.096l7.204,7.204l-141.902,141.892l141.896,141.898L-167.72,1084.43z M-85.908,1136.844
						l-59.617-59.617l59.554-59.558l59.617,59.617L-85.908,1136.844z M-11.356,1077.287l141.958-141.958L-11.356,793.372
						l7.141-7.139l149.102,149.096L-4.215,1084.43L-11.356,1077.287z"/>
				</g>
			</g>
			<use xlink:href="#SVGID_3_"  overflow="visible" fill="none" stroke="#000000" stroke-miterlimit="10"/>
		</g>
	</g>
</g>
<rect x="603.14" y="504.446" fill="none" width="1" height="10"/>
</svg>
