<?xml version="1.0" encoding="utf-8"?>
<!-- Generator: Adobe Illustrator 16.0.3, SVG Export Plug-In . SVG Version: 6.00 Build 0)  -->
<!DOCTYPE svg PUBLIC "-//W3C//DTD SVG 1.1//EN" "http://www.w3.org/Graphics/SVG/1.1/DTD/svg11.dtd">
<svg version="1.1" id="Capa_1" xmlns="http://www.w3.org/2000/svg" xmlns:xlink="http://www.w3.org/1999/xlink" x="0px" y="0px"
	 width="595.279px" height="841.89px" viewBox="0 0 595.279 841.89" enable-background="new 0 0 595.279 841.89"
	 xml:space="preserve">
<g>
	<g>
		<defs>
			<circle id="SVGID_1_" cx="295.591" cy="421.444" r="166.923"/>
		</defs>
		<clipPath id="SVGID_2_">
			<use xlink:href="#SVGID_1_"  overflow="visible"/>
		</clipPath>
		<rect x="67.487" y="225.507" clip-path="url(#SVGID_2_)" fill="#002A40" width="456.211" height="407.252"/>
	</g>
	<g>
		<defs>
			<circle id="SVGID_3_" cx="295.591" cy="421.444" r="166.923"/>
		</defs>
		<clipPath id="SVGID_4_">
			<use xlink:href="#SVGID_3_"  overflow="visible"/>
		</clipPath>
		<g id="XMLID_70_" clip-path="url(#SVGID_4_)">
			
				<text id="XMLID_36_" transform="matrix(1 0 0 1 276.1868 518.8394)" fill="#D0802B" font-family="'ArialMT'" font-size="15.0429" letter-spacing="5">XXI</text>
			
				<text id="XMLID_115_" transform="matrix(0.8672 0 0 1 183.4895 433.3804)" fill="#D0802B" font-family="'BaskOldFace'" font-size="34.693" letter-spacing="2.306">AUTO-CHELA</text>
			<g id="XMLID_58_">
				<path id="XMLID_126_" fill="#D0802B" d="M305.323,311.764h-2.474v7.171l-1.649,1.649v-13.316h-2.475v15.791l-1.649,1.649
					v-23.749h-2.474v23.755l-1.649-1.649v-15.797h-2.475v13.323l-1.649-1.649v-7.174h-2.474v8.194l-0.003,0.003l0.003,0.003v5.767
					l-0.003,0.003l0.003,0.003v5.721h0.047l-0.047,0.046l8.247,8.25v16.011h2.474v-16.023l8.244-8.244l-0.047-0.046h0.05V311.764z
					 M302.849,322.433v2.272l-5.773,5.773v-2.273L302.849,322.433z M294.605,328.208v2.272l-5.772-5.773v-2.272L294.605,328.208z
					 M288.832,330.481v-2.272l5.772,5.773v2.272L288.832,330.481z M297.075,333.975l5.773-5.773v2.272l-5.773,5.773V333.975z"/>
			</g>
			<g id="XMLID_98_">
				<path id="XMLID_142_" fill="#FFFFFF" d="M349.104,313.218l-9.543,9.543l-43.722-43.719l-43.76,43.762l-9.583-9.583
					L135.5,420.216l106.996,106.996l9.583-9.584l43.763,43.762l43.722-43.721l9.543,9.543l106.995-106.996L349.104,313.218z
					 M295.798,464.128l-4.889,4.889l-38.83,38.832l-87.633-87.633l87.633-87.633l38.833,38.833l4.89,4.889l4.889-4.889
					l38.873-38.873l87.677,87.673l-87.674,87.678l-38.879-38.877L295.798,464.128z M295.839,288.821l38.832,38.833l-38.873,38.87
					l-38.829-38.83L295.839,288.821z M242.493,517.437l-97.217-97.221L242.496,323l4.697,4.697l-92.526,92.52l92.522,92.523
					L242.493,517.437z M295.839,551.613l-38.873-38.873l38.832-38.834l38.873,38.873L295.839,551.613z M344.45,512.779
					l92.563-92.563l-92.563-92.563l4.656-4.653l97.22,97.216l-97.22,97.221L344.45,512.779z"/>
			</g>
		</g>
	</g>
</g>
<rect x="603.14" y="504.445" fill="none" width="1" height="10"/>
</svg>
