<?xml version="1.0" encoding="utf-8"?>
<!-- Generator: Adobe Illustrator 16.0.3, SVG Export Plug-In . SVG Version: 6.00 Build 0)  -->
<!DOCTYPE svg PUBLIC "-//W3C//DTD SVG 1.1//EN" "http://www.w3.org/Graphics/SVG/1.1/DTD/svg11.dtd">
<svg version="1.1" id="Capa_1" xmlns="http://www.w3.org/2000/svg" xmlns:xlink="http://www.w3.org/1999/xlink" x="0px" y="0px"
	 width="595.279px" height="841.89px" viewBox="0 0 595.279 841.89" enable-background="new 0 0 595.279 841.89"
	 xml:space="preserve">
<g>
	<g>
		<defs>
			<circle id="SVGID_1_" cx="233.591" cy="420.945" r="166.923"/>
		</defs>
		<clipPath id="SVGID_2_">
			<use xlink:href="#SVGID_1_"  overflow="visible"/>
		</clipPath>
		<rect x="5.487" y="225.008" clip-path="url(#SVGID_2_)" fill="#002A40" width="456.211" height="407.252"/>
	</g>
	<g>
		<defs>
			<circle id="SVGID_3_" cx="233.591" cy="420.945" r="166.923"/>
		</defs>
		<clipPath id="SVGID_4_">
			<use xlink:href="#SVGID_3_"  overflow="visible"/>
		</clipPath>
		<g id="XMLID_70_" clip-path="url(#SVGID_4_)">
			
				<text id="XMLID_36_" transform="matrix(1 0 0 1 214.5989 519.5679)" fill="#D0802B" font-family="'ArialMT'" font-size="15.0429" letter-spacing="5">XXI</text>
			<g id="XMLID_116_">
				
					<text transform="matrix(1 0 0 1 168.5042 447.4136)" fill="#FFFFFF" font-family="'ArialMT'" font-size="12.5357" letter-spacing="4">EL BARRIL A</text>
				
					<text transform="matrix(1 0 0 1 168.3743 462.4565)" fill="#FFFFFF" font-family="'ArialMT'" font-size="12.5357" letter-spacing="4">TU ALCANCE</text>
			</g>
			
				<text id="XMLID_115_" transform="matrix(1 0 0 1 123.9016 425.9976)" fill="#D0802B" font-family="'ArialMT'" font-size="30.0858" letter-spacing="2">AUTO-CHELA</text>
			<g id="XMLID_58_">
				<path id="XMLID_126_" fill="#D0802B" d="M242.735,312.492h-2.474v7.171l-1.649,1.649v-13.316h-2.475v15.791l-1.649,1.649
					v-23.749h-2.474v23.755l-1.649-1.649v-15.797h-2.475v13.323l-1.649-1.649v-7.174h-2.474v8.194l-0.003,0.003l0.003,0.003v5.767
					l-0.003,0.003l0.003,0.003v5.721h0.047l-0.047,0.046l8.247,8.25v16.011h2.474v-16.023l8.244-8.244l-0.047-0.046h0.05V312.492z
					 M240.261,323.161v2.272l-5.773,5.773v-2.273L240.261,323.161z M232.017,328.937v2.272l-5.772-5.773v-2.272L232.017,328.937z
					 M226.244,331.209v-2.272l5.772,5.773v2.272L226.244,331.209z M234.488,334.704l5.773-5.773v2.272l-5.773,5.773V334.704z"/>
			</g>
			<g id="XMLID_98_">
				<path id="XMLID_142_" fill="#FFFFFF" d="M285.516,313.946l-9.543,9.543l-43.722-43.719l-43.76,43.762l-9.583-9.583
					L71.912,420.945l106.996,106.996l9.583-9.584l43.763,43.762l43.722-43.721l9.543,9.543l106.995-106.996L285.516,313.946z
					 M232.21,464.857l-4.889,4.889l-38.83,38.832l-87.633-87.633l87.633-87.633l38.833,38.833l4.89,4.889l4.889-4.889l38.873-38.873
					l87.677,87.673l-87.674,87.678L237.1,469.746L232.21,464.857z M232.251,289.549l38.832,38.833l-38.873,38.87l-38.829-38.83
					L232.251,289.549z M178.906,518.166l-97.217-97.221l97.22-97.216l4.697,4.697l-92.526,92.52l92.522,92.523L178.906,518.166z
					 M232.251,552.341l-38.873-38.873l38.832-38.834l38.873,38.873L232.251,552.341z M280.863,513.507l92.563-92.563l-92.563-92.563
					l4.656-4.653l97.22,97.216l-97.22,97.221L280.863,513.507z"/>
			</g>
		</g>
	</g>
</g>
</svg>
