<?xml version="1.0" encoding="utf-8"?>
<!-- Generator: Adobe Illustrator 16.0.3, SVG Export Plug-In . SVG Version: 6.00 Build 0)  -->
<!DOCTYPE svg PUBLIC "-//W3C//DTD SVG 1.1//EN" "http://www.w3.org/Graphics/SVG/1.1/DTD/svg11.dtd">
<svg version="1.1" id="Capa_1" xmlns="http://www.w3.org/2000/svg" xmlns:xlink="http://www.w3.org/1999/xlink" x="0px" y="0px"
	 width="1024px" height="1024px" viewBox="1.222 1.093 1024 1024" enable-background="new 1.222 1.093 1024 1024"
	 xml:space="preserve">
<g>
	<g>
		<g>
			<defs>
				<path id="SVGID_1_" d="M513.224,1.093c282.767,0,511.998,229.23,511.998,512.001c0,282.774-229.231,511.999-511.998,511.999
					c-282.771,0-512.002-229.225-512.002-511.999C1.222,230.324,230.453,1.093,513.224,1.093z"/>
			</defs>
			<clipPath id="SVGID_2_">
				<use xlink:href="#SVGID_1_"  overflow="visible"/>
			</clipPath>
			<rect x="-186.436" y="-87.901" clip-path="url(#SVGID_2_)" fill="#0F2B40" width="1399.325" height="1249.159"/>
		</g>
	</g>
	<g>
		<g>
			<defs>
				<path id="SVGID_3_" d="M513.224,1.093c282.767,0,511.998,229.23,511.998,512.001c0,282.774-229.231,511.999-511.998,511.999
					c-282.771,0-512.002-229.225-512.002-511.999C1.222,230.324,230.453,1.093,513.224,1.093z"/>
			</defs>
			<clipPath id="SVGID_4_">
				<use xlink:href="#SVGID_3_"  overflow="visible"/>
			</clipPath>
			<g id="XMLID_70_" clip-path="url(#SVGID_4_)">
				
					<text id="XMLID_36_" transform="matrix(1 0 0 1 453.7048 811.834)" fill="#D08029" font-family="'ArialMT'" font-size="46.1408" letter-spacing="16.999">XXI</text>
				<g id="XMLID_116_">
					
						<text transform="matrix(1 0 0 1 318.4568 587.4473)" fill="#FFFFFF" font-family="'ArialMT'" font-size="38.4507" letter-spacing="14.999">EL BARRIL A</text>
					
						<text transform="matrix(1 0 0 1 318.0564 633.5889)" fill="#FFFFFF" font-family="'ArialMT'" font-size="38.4507" letter-spacing="14.999">TU ALCANCE</text>
				</g>
				
					<text id="XMLID_115_" transform="matrix(0.9364 0 0 1 191.4524 529.2676)" fill="#D08029" font-family="'ArialMT'" font-size="93.8842" letter-spacing="8.544">AUTO-CHELA</text>
				<g id="XMLID_58_">
					<path id="XMLID_126_" fill="#D08029" d="M543.073,176.673h-7.587v21.996l-5.06,5.06v-40.845h-7.59v48.434l-5.06,5.058v-72.844
						h-7.586v72.864l-5.061-5.058v-48.454h-7.59v40.864l-5.061-5.058v-22.006h-7.587v25.134l-0.009,0.009l0.009,0.01v17.688
						l-0.009,0.009l0.009,0.009v17.547h0.144l-0.144,0.142l25.296,25.306v49.109h7.588V262.5l25.287-25.288l-0.144-0.143h0.152
						L543.073,176.673L543.073,176.673z M535.486,209.397v6.97l-17.71,17.708v-6.972L535.486,209.397z M510.198,227.115v6.97
						l-17.708-17.708v-6.97L510.198,227.115z M492.49,234.084v-6.97l17.708,17.707v6.971L492.49,234.084z M517.776,244.801
						l17.71-17.707v6.97l-17.71,17.709V244.801z"/>
				</g>
				<g id="XMLID_98_">
					<path id="XMLID_142_" fill="#FFFFFF" d="M677.361,181.133l-29.271,29.27L513.985,76.307l-134.224,134.23l-29.394-29.394
						L22.181,509.329l328.186,328.189l29.394-29.396L513.993,942.35l134.104-134.104l29.272,29.271l328.185-328.189L677.361,181.133
						z M513.858,644.021l-14.995,14.994L379.761,778.124L110.967,509.329L379.76,240.533l119.111,119.111l14.999,14.997
						l14.995-14.997L648.097,240.41l268.931,268.92L648.109,778.262L528.858,659.015L513.858,644.021z M513.985,106.3
						l119.107,119.111L513.857,344.637L394.759,225.535L513.985,106.3z M350.359,807.532L52.168,509.329l298.2-298.191
						l14.408,14.407L80.971,509.329l283.791,283.796L350.359,807.532z M513.985,912.359L394.75,793.125L513.857,674.01
						l119.235,119.235L513.985,912.359z M663.089,793.245l283.914-283.917L663.089,225.411l14.281-14.274l298.201,298.19
						L677.37,807.532L663.089,793.245z"/>
				</g>
			</g>
		</g>
	</g>
</g>
</svg>
