<?xml version="1.0" encoding="utf-8"?>
<!-- Generator: Adobe Illustrator 16.0.3, SVG Export Plug-In . SVG Version: 6.00 Build 0)  -->
<!DOCTYPE svg PUBLIC "-//W3C//DTD SVG 1.1//EN" "http://www.w3.org/Graphics/SVG/1.1/DTD/svg11.dtd">
<svg version="1.1" id="Capa_1" xmlns="http://www.w3.org/2000/svg" xmlns:xlink="http://www.w3.org/1999/xlink" x="0px" y="0px"
	 width="338.424px" height="337.423px" viewBox="126.14 250.445 338.424 337.423"
	 enable-background="new 126.14 250.445 338.424 337.423" xml:space="preserve">
<g>
	<g>
		<defs>
			<circle id="SVGID_1_" cx="297.64" cy="420.945" r="166.923"/>
		</defs>
		<clipPath id="SVGID_2_">
			<use xlink:href="#SVGID_1_"  overflow="visible"/>
		</clipPath>
		<rect x="69.536" y="225.008" clip-path="url(#SVGID_2_)" fill="#002A40" width="456.211" height="407.252"/>
	</g>
	<g>
		<defs>
			<circle id="SVGID_3_" cx="297.64" cy="420.945" r="166.923"/>
		</defs>
		<clipPath id="SVGID_4_">
			<use xlink:href="#SVGID_3_"  overflow="visible"/>
		</clipPath>
		<g id="XMLID_70_" clip-path="url(#SVGID_4_)">
			
				<text id="XMLID_36_" transform="matrix(1 0 0 1 278.2361 518.3403)" fill="#D0802B" font-family="'ArialMT'" font-size="15.0429" letter-spacing="5">XXI</text>
			
				<text id="XMLID_115_" transform="matrix(0.8672 0 0 1 185.5388 432.8813)" fill="#D0802B" font-family="'BaskOldFace'" font-size="34.693" letter-spacing="2.306">AUTO-CHELA</text>
			<g id="XMLID_58_">
				<path id="XMLID_126_" fill="#D0802B" d="M307.372,311.265h-2.475v7.171l-1.648,1.649v-13.316h-2.475v15.791l-1.65,1.649V300.46
					h-2.473v23.755l-1.649-1.649v-15.797h-2.475v13.323l-1.649-1.649v-7.175h-2.474v8.194l-0.003,0.003l0.003,0.004v5.767
					l-0.003,0.003l0.003,0.003v5.721h0.047l-0.047,0.046l8.247,8.25v16.011h2.473v-16.022l8.244-8.244l-0.047-0.047h0.051V311.265z
					 M304.898,321.934v2.272l-5.773,5.772v-2.272L304.898,321.934z M296.654,327.709v2.272l-5.772-5.772v-2.272L296.654,327.709z
					 M290.882,329.982v-2.272l5.772,5.773v2.272L290.882,329.982z M299.124,333.476l5.773-5.772v2.272l-5.773,5.773V333.476z"/>
			</g>
			<g id="XMLID_98_">
				<path id="XMLID_142_" fill="#FFFFFF" d="M351.154,312.719l-9.543,9.543l-43.722-43.719l-43.76,43.762l-9.583-9.583
					L137.55,419.717l106.996,106.996l9.583-9.584l43.763,43.762l43.721-43.721l9.543,9.543l106.996-106.996L351.154,312.719z
					 M297.847,463.629l-4.889,4.889l-38.83,38.832l-87.633-87.633l87.633-87.633l38.833,38.833l4.89,4.889l4.888-4.889
					l38.873-38.873l87.678,87.673l-87.674,87.678l-38.879-38.877L297.847,463.629z M297.888,288.322l38.832,38.833l-38.873,38.87
					l-38.829-38.83L297.888,288.322z M244.543,516.938l-97.217-97.221l97.22-97.216l4.697,4.696l-92.526,92.52l92.522,92.523
					L244.543,516.938z M297.888,551.114l-38.873-38.873l38.832-38.834l38.873,38.873L297.888,551.114z M346.499,512.28
					l92.563-92.563l-92.563-92.563l4.656-4.653l97.221,97.216l-97.221,97.221L346.499,512.28z"/>
			</g>
		</g>
	</g>
</g>
<rect x="603.14" y="504.445" fill="none" width="1" height="10"/>
</svg>
